<svg xmlns="http://www.w3.org/2000/svg" width="32" height="32" viewBox="0 0 32 32">
    <g fill="none" fill-rule="evenodd">
        <g>
            <g transform="translate(-768.000000, -3898.000000) translate(736.000000, 3858.000000) translate(32.000000, 40.000000)">
                <rect width="32" height="32" fill="#FF9800" rx="4"/>
                <path fill="#F7F7F7" fill-rule="nonzero" d="M10.339 16.756c.16 0 .317.053.452.152 1.683 1.185 3.813 1.185 5.495 0 .135-.099.292-.151.453-.152h.15c2.313 0 4.189 2.123 4.189 4.743v2.845c0 .524-.375.949-.838.949H6.838c-.463 0-.838-.425-.838-.949V21.5c0-2.62 1.875-4.743 4.188-4.743zm12.213.4c2.03.514 3.45 2.342 3.448 4.435v2.744c0 .505-.41.915-.915.915h-1.829c-.505 0-.915-.41-.915-.915v-2.744c-.005-1.076-.282-2.132-.804-3.073-.182-.318-.157-.714.064-1.006.174-.227.445-.359.731-.357zM13.539 7c2.449 0 4.434 1.985 4.434 4.435 0 2.449-1.985 4.434-4.434 4.434-2.45 0-4.435-1.985-4.435-4.434C9.104 8.985 11.09 7 13.54 7zm5.97.976l.09.005c.943.242 1.75.85 2.246 1.687l-.015.008c.588.993.674 2.205.232 3.271-.441 1.066-1.359 1.863-2.477 2.15h-.169c-.405 0-.733-.329-.733-.734-.002-.124.031-.246.095-.352.846-1.54.846-3.405 0-4.944-.064-.107-.097-.229-.095-.352l.009-.113c.029-.184.127-.352.277-.467.128-.1.285-.154.447-.154.061-.007.123-.007.184 0z"/>
            </g>
        </g>
    </g>
</svg>
