<svg xmlns="http://www.w3.org/2000/svg" width="32" height="32" viewBox="0 0 32 32">
    <g fill="none" fill-rule="evenodd">
        <g>
            <g transform="translate(-768.000000, -4154.000000) translate(736.000000, 4114.000000) translate(32.000000, 40.000000)">
                <rect width="32" height="32" fill="#FB0A12" rx="4"/>
                <path fill="#F7F7F7" fill-rule="nonzero" d="M26 12.092V24.53c0 .974-.789 1.766-1.758 1.766H7.758c-.97 0-1.758-.792-1.758-1.766V12.092h20zm-4.14 10.633H10.14c-.323 0-.585.264-.585.589 0 .325.262.588.586.588h11.718c.324 0 .586-.263.586-.588 0-.325-.262-.589-.586-.589zm-9.376-4.708l-.172.005c-1.535.09-2.757 1.373-2.757 2.938 0 .325.262.588.586.588h4.687c.324 0 .586-.263.586-.588 0-1.623-1.314-2.943-2.93-2.943zm9.375 1.962h-4.687c-.324 0-.586.263-.586.588 0 .326.262.589.586.589h4.687c.324 0 .586-.263.586-.589 0-.325-.262-.588-.586-.588zm0-2.747h-4.687c-.324 0-.586.263-.586.589 0 .325.262.588.586.588h4.687c.324 0 .586-.263.586-.588 0-.326-.262-.589-.586-.589zm-9.375-2.747c-.969 0-1.757.792-1.757 1.766s.788 1.766 1.757 1.766c.97 0 1.758-.792 1.758-1.766s-.788-1.766-1.758-1.766zm9.375 0h-4.687c-.324 0-.586.264-.586.589 0 .325.262.589.586.589h4.687c.324 0 .586-.264.586-.589 0-.325-.262-.589-.586-.589zm2.383-8.279c.97 0 1.758.792 1.758 1.766v2.943H6V7.972c0-.974.789-1.766 1.758-1.766zM10.141 7.972c-.324 0-.586.263-.586.589 0 .325.262.588.586.588.323 0 .586-.263.586-.588 0-.326-.263-.589-.586-.589zm2.343 0c-.323 0-.586.263-.586.589 0 .325.263.588.586.588.324 0 .586-.263.586-.588 0-.326-.262-.589-.586-.589zm2.344 0c-.323 0-.586.263-.586.589 0 .325.263.588.586.588.324 0 .586-.263.586-.588 0-.326-.262-.589-.586-.589z"/>
            </g>
        </g>
    </g>
</svg>
