<svg xmlns="http://www.w3.org/2000/svg" width="32" height="32" viewBox="0 0 32 32">
    <g fill="none" fill-rule="evenodd">
        <g>
            <g transform="translate(-288.000000, -4410.000000) translate(256.000000, 4370.000000) translate(32.000000, 40.000000)">
                <rect width="32" height="32" fill="#2578FC" rx="4"/>
                <path fill="#F7F7F7" d="M10.021 7.975c.222 0 .405.186.405.41v.821c0 .682.548 1.232 1.212 1.232h8.57c.671 0 1.212-.556 1.212-1.232v-.82c0-.225.184-.411.405-.411h.809c.665 0 1.206.55 1.2 1.231v15.562c0 .682-.548 1.232-1.214 1.232H9.213C8.54 26 8 25.444 8 24.768V9.206c0-.681.548-1.231 1.213-1.231zm8.44 12.858l-.144.006c-.916.073-1.662.83-1.733 1.76-.093 1.184.88 2.172 2.046 2.078.917-.072 1.663-.829 1.734-1.76.093-1.19-.88-2.171-2.047-2.078zm.025 1.253l.095.009c.277.05.497.274.54.548.078.455-.314.844-.76.772-.278-.05-.499-.274-.54-.548-.08-.454.312-.844.76-.772zm-5.136-5.825l-.092.005c-.334.043-.583.354-.54.7.013.13.383 3.153 2.317 4.609.113.08.241.123.369.123.192 0 .377-.086.497-.252.2-.274.143-.672-.128-.88-1.499-1.133-1.82-3.716-1.827-3.752-.042-.338-.347-.59-.688-.548zm1.72-4.323c-.242-.245-.633-.245-.874 0l-.839.851-.839-.85c-.241-.246-.632-.246-.873 0-.242.244-.242.641 0 .886l.838.851-.838.852c-.242.245-.242.642 0 .887.12.122.283.187.44.187.156 0 .312-.065.426-.187l.839-.851.839.851c.12.122.277.187.44.187.163 0 .32-.065.441-.187.242-.245.242-.642 0-.887l-.839-.852.84-.85c.24-.246.24-.643 0-.888zM15.923 6c.58 0 1.108.324 1.396.82h1.744c.672 0 1.213.557 1.213 1.232v.814c0 .225-.183.41-.404.41h-7.878c-.221 0-.405-.179-.424-.404v-.82c0-.682.547-1.232 1.213-1.232h1.745c.286-.503.815-.82 1.395-.82z"/>
            </g>
        </g>
    </g>
</svg>
