<svg xmlns="http://www.w3.org/2000/svg" width="32" height="32" viewBox="0 0 32 32">
    <g fill="none" fill-rule="evenodd">
        <g>
            <g transform="translate(-768.000000, -4410.000000) translate(736.000000, 4370.000000) translate(32.000000, 40.000000)">
                <rect width="32" height="32" fill="#00C457" rx="4"/>
                <path fill="#F7F7F7" d="M9 8h14c1.657 0 3 1.343 3 3v10c0 1.657-1.343 3-3 3H9c-1.657 0-3-1.343-3-3V11c0-1.657 1.343-3 3-3zm1 11c.552 0 1 .448 1 1s-.448 1-1 1-1-.448-1-1 .448-1 1-1zm16-7v2H6v-2h20z"/>
            </g>
        </g>
    </g>
</svg>
