<svg xmlns="http://www.w3.org/2000/svg" width="32" height="32" viewBox="0 0 32 32">
    <g fill="none" fill-rule="evenodd">
        <g transform="translate(-160.000000, -792.000000) translate(160.000000, 792.000000)">
            <rect width="32" height="32" fill="#111217" rx="4"/>
            <path fill="#FFF" fill-rule="nonzero" d="M18.81 8.168l.08.077.64.723c.241.273.575.444.934.482l.155.009h.472l.145.003c1.482.073 2.673 1.255 2.759 2.733l.005.172v2.908l-.004.109c-.052.705-.607 1.27-1.308 1.339l-.143.006H21.09v5.09l-.003.128c-.063 1.093-.931 1.97-2.02 2.047l-.158.006h-5.818c-1.162 0-2.112-.908-2.178-2.053l-.004-.128v-5.09H9.455c-.767 0-1.395-.593-1.451-1.345L8 15.275v-2.908c0-1.558 1.225-2.83 2.764-2.905l.145-.003h.472c.416 0 .813-.179 1.09-.491l.638-.723c.277-.312.759-.328 1.056-.035.503.496 1.101.738 1.835.738l.216-.008c.636-.043 1.166-.284 1.619-.73.27-.267.693-.278.975-.042zm.826 12.923h-7.272v.728c0 .373.28.68.642.722l.085.005h5.818l.085-.005c.329-.038.59-.296.636-.622l.006-.1v-.728zm-2.546-6.907h-2.18l-.086.006h-.009l-.046.008-.023.005-.023.006-.04.011c-.078.026-.15.064-.214.112l-.047.04-.024.023c-.033.032-.063.068-.09.106-.026.039-.049.08-.069.128-.025.058-.042.12-.05.184l-.007.099v1.09l.005.085c.042.362.35.642.722.642.368 0 .673-.273.72-.628l.007-.099v-.363h.548l-.53 2.387-.014.084c-.037.362.202.702.566.783.36.08.716-.12.84-.457l.028-.095.727-3.272.007-.038.002-.01.001-.01V15l.003-.013.003-.028.001-.046v-.043l-.003-.023-.006-.05-.01-.05c-.004-.02-.01-.04-.017-.06l-.01-.028c-.007-.021-.016-.042-.025-.061l-.018-.035-.014-.025-.016-.023-.026-.038-.015-.02-.016-.018-.026-.03-.01-.01c-.016-.016-.033-.031-.05-.045l-.026-.021-.037-.026-.039-.024-.021-.012c-.024-.013-.048-.024-.073-.034l-.032-.012-.073-.021.042.011.015.005c-.025-.008-.044-.013-.063-.017l-.01-.002-.008-.002-.064-.01H17.158h.002l-.07-.004zm.776-4.217l-.076.04c-.541.262-1.14.395-1.79.395h-.001c-.68 0-1.305-.146-1.865-.434.204 1.028.81 1.676 1.865 2.02 1.056-.343 1.663-.992 1.867-2.02z"/>
        </g>
    </g>
</svg>
