<svg xmlns="http://www.w3.org/2000/svg" width="32" height="32" viewBox="0 0 32 32">
    <g fill="none" fill-rule="evenodd">
        <g transform="translate(-736.000000, -792.000000) translate(736.000000, 792.000000)">
            <rect width="32" height="32" fill="#111217" rx="4"/>
            <path fill="#FFF" fill-rule="nonzero" d="M11.471 15.467c.129 0 .254.04.362.116 1.346.907 3.05.907 4.396 0 .108-.076.233-.116.362-.116h.12c1.85 0 3.351 1.625 3.351 3.63v2.177c0 .401-.3.726-.67.726H8.67c-.37 0-.67-.325-.67-.726v-2.178c0-2.004 1.5-3.63 3.35-3.63zm9.77.305c1.624.394 2.76 1.793 2.759 3.395v2.1c0 .387-.328.7-.732.7h-1.463c-.404 0-.732-.313-.732-.7v-2.1c-.005-.823-.226-1.632-.644-2.352-.145-.243-.125-.546.051-.77.14-.173.357-.274.586-.273zM14.031 8c1.96 0 3.548 1.52 3.548 3.394s-1.589 3.394-3.548 3.394c-1.96 0-3.548-1.52-3.548-3.394S12.072 8 14.031 8zm4.776.747l.073.004c.754.185 1.4.65 1.796 1.291l-.012.006c.47.76.54 1.687.186 2.503-.353.817-1.087 1.426-1.982 1.646h-.135c-.324 0-.587-.252-.587-.562 0-.095.026-.188.077-.27.676-1.178.676-2.605 0-3.783-.051-.082-.078-.175-.077-.27l.01-.102c.027-.135.104-.257.22-.341.102-.076.228-.118.357-.118.049-.006.098-.006.147 0z"/>
        </g>
    </g>
</svg>
