<svg xmlns="http://www.w3.org/2000/svg" width="32" height="32" viewBox="0 0 32 32">
    <g fill="none" fill-rule="evenodd">
        <g transform="translate(-448.000000, -848.000000) translate(448.000000, 848.000000)">
            <rect width="32" height="32" fill="#111217" rx="4"/>
            <path fill="#FFF" d="M11.66 9.58c.181 0 .332.149.332.328v.657c0 .546.45.985.995.985h7.036c.552 0 .996-.445.996-.985v-.657c0-.18.15-.328.332-.328h.664c.546 0 .99.44.985.985v12.45c0 .545-.45.985-.996.985H10.996c-.552 0-.996-.444-.996-.985v-12.45c0-.545.45-.985.996-.985zm6.947 10.286l-.136.005c-.752.059-1.365.664-1.423 1.408-.076.947.723 1.738 1.68 1.663.753-.058 1.365-.663 1.423-1.408.077-.953-.722-1.737-1.68-1.663zm-.004 1.003l.084.007c.228.04.409.22.444.438.064.364-.257.675-.625.618-.227-.04-.409-.22-.443-.439-.064-.363.256-.675.624-.617zm-4.194-4.66l-.092.004c-.274.034-.479.283-.443.56.01.104.314 2.522 1.902 3.687.093.064.198.098.303.098.157 0 .31-.068.408-.202.164-.218.117-.536-.105-.704-1.23-.906-1.494-2.972-1.5-3-.034-.271-.285-.473-.565-.44zm-.7-3.458c-.197-.197-.518-.197-.716 0-.2.196-.2.513 0 .71l.688.68-.688.681c-.2.196-.2.514 0 .71.098.098.232.15.36.15.13 0 .257-.052.35-.15l.69-.68.688.68c.099.098.228.15.362.15.134 0 .262-.052.362-.15.198-.196.198-.514 0-.71l-.689-.68.689-.682c.198-.196.198-.513 0-.71-.199-.196-.52-.196-.718 0l-.689.681zM16.506 8c.477 0 .91.26 1.146.656h1.432c.552 0 .997.445.997.985v.651c0 .18-.15.329-.332.329h-6.469c-.182 0-.332-.143-.348-.323V9.64c0-.545.45-.985.996-.985h1.433c.235-.402.67-.656 1.145-.656z"/>
        </g>
    </g>
</svg>
