<svg xmlns="http://www.w3.org/2000/svg" width="32" height="32" viewBox="0 0 32 32">
    <g fill="none" fill-rule="evenodd">
        <g transform="translate(-736.000000, -848.000000) translate(736.000000, 848.000000)">
            <rect width="32" height="32" fill="#111217" rx="4"/>
            <path fill="#FFF" d="M17.32 8c.564 0 1.097.076 1.596.23.5.155.96.368 1.377.64.418.273.795.598 1.131.976.336.378.621.787.855 1.227.234.439.412.901.535 1.385.124.484.186.975.186 1.471 0 .733-.132 1.45-.397 2.15-.266.7-.644 1.323-1.135 1.87-.49.545-1.08.987-1.768 1.326-.687.338-1.449.512-2.284.52l-2.652.003h-.01c-.074.001-.55.039-.55.773l.003 2.962c0 .31-.166.464-.498.464L10.49 24c-.145 0-.26-.038-.347-.113-.087-.075-.13-.192-.13-.35l-.004-3.735-.001-1.391v-.457c3.88 2.52 4.963.207 5.688-.994.618-1.021 1.085-1.552 1.22-1.697 1.295-.078 2.32-1.148 2.32-2.455-.001-1.358-1.11-2.458-2.476-2.456-1.366 0-2.472 1.103-2.47 2.46 0 .824.409 1.552 1.035 1.998l-.094-.024s-.535.899-1.272 1.214c-.737.315-.856.395-1.499-1.259-.644-1.654-2.046-1.204-2.046-1.204.165-.606-.17-1.2-.412-1.53L10 8.568c0-.17.045-.307.135-.409.09-.102.225-.153.405-.153zm-.557 3.718c.606 0 1.099.488 1.1 1.091 0 .603-.492 1.093-1.098 1.093-.607 0-1.1-.488-1.1-1.091s.49-1.092 1.098-1.093z"/>
        </g>
    </g>
</svg>
