<svg xmlns="http://www.w3.org/2000/svg" width="32" height="32" viewBox="0 0 32 32">
    <g fill="none" fill-rule="evenodd">
        <g transform="translate(-1024.000000, -848.000000) translate(1024.000000, 848.000000)">
            <rect width="32" height="32" fill="#111217" rx="4"/>
            <path fill="#FFF" fill-rule="nonzero" d="M15.272 9v4.595c-1.255.333-2.181 1.508-2.181 2.905 0 1.334.844 2.465 2.012 2.855l.169.05V24h-5.09c-1.131 0-2.061-.986-2.171-2.25H8v-1.5h2.182c.401 0 .727-.336.727-.75v-5.25c0-.414-.326-.75-.727-.75H8v-2c0-1.323.897-2.406 2.032-2.494l.15-.006h5.09zM24 20.25v1.25l-.001.029.001.221h-.01c-.106 1.208-.96 2.162-2.022 2.244l-.15.006h-5.091v-4.595c1.255-.333 2.182-1.507 2.182-2.905 0-1.334-.845-2.465-2.013-2.855l-.169-.05V9h5.091c1.155 0 2.1 1.028 2.177 2.329L24 11.5v2h-2.182c-.401 0-.727.336-.727.75v5.25c0 .414.326.75.727.75H24zM9.455 15v3.75H8V15h1.455zM24 15v3.75h-1.455V15H24zm-8 0c.803 0 1.455.672 1.455 1.5 0 .776-.572 1.414-1.304 1.492l-.139.008h-.018l-.134-.007c-.692-.068-1.242-.635-1.308-1.349l-.007-.144c0-.828.652-1.5 1.455-1.5z"/>
        </g>
    </g>
</svg>
